<svg aria-hidden="true" style="position:absolute;width:0;height:0" xmlns="http://www.w3.org/2000/svg" overflow="hidden">
    <defs>
        <symbol id="eye-close" viewBox="0 0 32 32">
            <path d="M29.561 0.439c-0.586-0.586-1.535-0.586-2.121 0l-6.318 6.318c-1.623-0.492-3.342-0.757-5.122-0.757-6.979 0-13.028 4.064-16 10 1.285 2.566 3.145 4.782 5.407 6.472l-4.968 4.968c-0.586 0.586-0.586 1.535 0 2.121 0.293 0.293 0.677 0.439 1.061 0.439s0.768-0.146 1.061-0.439l27-27c0.586-0.586 0.586-1.536 0-2.121zM13 10c1.32 0 2.44 0.853 2.841 2.037l-3.804 3.804c-1.184-0.401-2.037-1.521-2.037-2.841 0-1.657 1.343-3 3-3zM3.441 16c1.197-1.891 2.79-3.498 4.67-4.697 0.122-0.078 0.246-0.154 0.371-0.228-0.311 0.854-0.482 1.776-0.482 2.737 0 1.715 0.54 3.304 1.459 4.607l-1.904 1.904c-1.639-1.151-3.038-2.621-4.114-4.323z"></path>
            <path d="M24 13.813c0-0.849-0.133-1.667-0.378-2.434l-10.056 10.056c0.768 0.245 1.586 0.378 2.435 0.378 4.418 0 8-3.582 8-8z"></path>
            <path d="M25.938 9.062l-2.168 2.168c0.040 0.025 0.079 0.049 0.118 0.074 1.88 1.199 3.473 2.805 4.67 4.697-1.197 1.891-2.79 3.498-4.67 4.697-2.362 1.507-5.090 2.303-7.889 2.303-1.208 0-2.403-0.149-3.561-0.439l-2.403 2.403c1.866 0.671 3.873 1.036 5.964 1.036 6.978 0 13.027-4.064 16-10-1.407-2.81-3.504-5.2-6.062-6.938z"></path>
        </symbol>
        
        <symbol id="eye" viewBox="0 0 32 32">
            <path d="M16 6c-6.979 0-13.028 4.064-16 10 2.972 5.936 9.021 10 16 10s13.027-4.064 16-10c-2.972-5.936-9.021-10-16-10zM23.889 11.303c1.88 1.199 3.473 2.805 4.67 4.697-1.197 1.891-2.79 3.498-4.67 4.697-2.362 1.507-5.090 2.303-7.889 2.303s-5.527-0.796-7.889-2.303c-1.88-1.199-3.473-2.805-4.67-4.697 1.197-1.891 2.79-3.498 4.67-4.697 0.122-0.078 0.246-0.154 0.371-0.228-0.311 0.854-0.482 1.776-0.482 2.737 0 4.418 3.582 8 8 8s8-3.582 8-8c0-0.962-0.17-1.883-0.482-2.737 0.124 0.074 0.248 0.15 0.371 0.228v0zM16 13c0 1.657-1.343 3-3 3s-3-1.343-3-3 1.343-3 3-3 3 1.343 3 3z"></path>
        </symbol>

        <symbol id="check" viewBox="0 0 20 20">
            <path d="M0 11l2-2 5 5 11-11 2 2-13 13z"></path>
        </symbol>

        <symbol id="shredder" viewBox="0 0 32 32">
            <path d="M26 23h1.006c1.654 0 2.994-1.349 2.994-3.006v-4.988c0-1.66-1.341-3.006-2.994-3.006h-2.006v-7c0-1.104-0.891-2-1.997-2h-15.005c-1.103 0-1.997 0.887-1.997 2v7h-2.006c-1.654 0-2.994 1.349-2.994 3.006v4.988c0 1.66 1.341 3.006 2.994 3.006h1.006v-3h21v3zM4 22c-1.106-0.004-2-0.897-2-1.997v-5.005c0-1.102 0.899-1.997 2.007-1.997h22.985c1.109 0 2.007 0.894 2.007 1.997v5.005c0 1.099-0.895 1.993-2 1.997v-3h-23v3zM8 4h15c0.545 0 1 0.446 1 0.997v7.003h-17v-7.003c0-0.544 0.448-0.997 1-0.997zM24 17c0.552 0 1-0.448 1-1s-0.448-1-1-1c-0.552 0-1 0.448-1 1s0.448 1 1 1v0zM6 21v8h1v-8h-1zM8 21v7h1v-7h-1zM10 21v8h1v-8h-1zM12 21v6h1v-6h-1zM14 21v7h1v-7h-1zM16 21v6h1v-6h-1zM18 21v8h1v-8h-1zM22 21v7h1v-7h-1zM24 21v8h1v-8h-1zM20 21v6h1v-6h-1z"></path>
        </symbol>
    </defs>
</svg>